<svg width="41" height="40" viewBox="0 0 41 40" fill="none" xmlns="http://www.w3.org/2000/svg">
<path d="M34.468 29.2668C35.02 29.2668 35.468 28.8188 35.468 28.2668V19.5468C35.4667 18.4802 34.6013 17.6148 33.5347 17.6135H31.2827V10.8002C31.2773 5.0215 26.5947 0.338829 20.816 0.333496C15.0373 0.338829 10.3547 5.0215 10.3493 10.8002V17.6068H8.09733C7.03067 17.6082 6.16533 18.4735 6.164 19.5402V34.7922C6.16667 37.4828 8.348 39.6642 11.0387 39.6668H30.5933C33.284 39.6642 35.4653 37.4828 35.468 34.7922C35.468 34.2402 35.02 33.7922 34.468 33.7922C33.916 33.7922 33.468 34.2402 33.468 34.7922C33.4653 36.3788 32.18 37.6642 30.5933 37.6668H11.0387C9.452 37.6642 8.16667 36.3788 8.164 34.7922L8.09733 19.6068H11.3493C11.9013 19.6068 12.3493 19.1588 12.3493 18.6068V10.8002C12.7387 -0.40117 28.8933 -0.402504 29.2827 10.8002V17.6068H18.1493C17.5973 17.6068 17.1493 18.0548 17.1493 18.6068C17.1493 19.1588 17.5973 19.6068 18.1493 19.6068C20.7053 19.5935 31.14 19.5562 33.468 19.5402V28.2668C33.468 28.8188 33.916 29.2668 34.468 29.2668Z" fill="#030522"/>
<path d="M18.6113 28.6359C18.6606 31.5346 22.9726 31.5346 23.0219 28.6359C22.9726 25.7372 18.6606 25.7372 18.6113 28.6359Z" fill="#030522"/>
</svg>
